<svg xmlns="http://www.w3.org/2000/svg" xmlns:xlink="http://www.w3.org/1999/xlink" preserveAspectRatio="xMidYMid" width="23" height="17" viewBox="0 0 23 17">
  <defs>
    <style>
      .cls-1 {
        fill: #fff;
        fill-rule: evenodd;
      }
    </style>
  </defs>
  <path d="M1.840,-0.000 L21.160,-0.000 C22.351,-0.000 23.000,0.630 23.000,1.788 L23.000,15.210 C23.000,16.367 22.351,16.999 21.160,16.999 L1.840,16.999 C0.649,16.999 -0.000,16.367 -0.000,15.210 L-0.000,1.788 C-0.000,0.630 0.649,-0.000 1.840,-0.000 ZM11.960,11.183 L11.040,11.183 L1.380,2.235 L2.300,1.341 L11.500,9.841 L20.700,1.341 L21.620,2.235 L11.960,11.183 ZM7.899,9.717 L1.970,15.482 L1.444,14.971 L7.373,9.205 L7.899,9.717 ZM21.556,14.971 L21.029,15.482 L15.100,9.717 L15.627,9.205 L21.556,14.971 Z" class="cls-1"/>
</svg>
