<svg xmlns="http://www.w3.org/2000/svg" xmlns:xlink="http://www.w3.org/1999/xlink" preserveAspectRatio="xMidYMid" width="15.78" height="13.313" viewBox="0 0 15.78 13.313">
  <defs>
    <style>
      .cls-1 {
        fill: #fff;
        fill-rule: evenodd;
      }
    </style>
  </defs>
  <path d="M13.311,3.347 L13.311,5.706 L12.326,5.706 L12.326,3.347 L9.863,3.347 L9.863,2.382 L12.326,2.382 L12.326,0.023 L13.311,0.023 L13.311,2.382 L15.773,2.382 L15.773,3.347 L13.311,3.347 ZM6.499,0.957 C7.373,1.432 7.885,2.203 7.885,3.212 C7.885,4.059 7.352,4.727 6.665,5.245 C5.995,5.750 5.867,5.961 5.867,6.392 C5.867,6.758 6.586,7.382 6.961,7.638 C8.060,8.387 8.384,9.082 8.384,10.243 C8.384,11.691 6.961,13.308 4.330,13.308 C2.021,13.308 0.012,12.224 0.012,10.776 C0.012,9.305 1.850,7.887 4.159,7.887 C4.410,7.887 4.641,7.877 4.879,7.877 C4.563,7.581 4.314,7.212 4.314,6.764 C4.314,6.499 4.401,6.232 4.524,6.004 C4.399,6.013 4.271,5.994 4.139,5.994 C2.243,5.994 0.972,4.648 0.972,3.036 C0.972,1.459 2.727,0.007 4.590,0.007 C5.630,0.007 8.747,0.007 8.747,0.007 L7.817,0.957 L6.499,0.957 ZM4.598,8.262 C3.003,8.246 1.573,9.200 1.573,10.347 C1.573,11.517 2.726,12.372 4.321,12.372 C6.564,12.372 7.346,11.577 7.346,10.407 C7.346,10.266 7.328,10.128 7.295,9.993 C7.120,9.332 6.499,9.004 5.632,8.423 C5.317,8.324 4.971,8.266 4.598,8.262 ZM6.391,3.230 C6.206,1.874 5.142,0.785 4.071,0.755 C3.000,0.724 2.282,1.762 2.467,3.118 C2.652,4.475 3.669,5.600 4.741,5.630 C5.811,5.661 6.576,4.586 6.391,3.230 Z" class="cls-1"/>
</svg>
