<svg xmlns="http://www.w3.org/2000/svg" xmlns:xlink="http://www.w3.org/1999/xlink" preserveAspectRatio="xMidYMid" width="31" height="51" viewBox="0 0 31 51">
  <defs>
    <style>
      .cls-1 {
        fill: #fff;
        fill-rule: evenodd;
      }
    </style>
  </defs>
  <path d="M15.500,50.998 C6.940,50.998 -0.000,43.814 -0.000,34.952 L-0.000,23.999 L-0.000,21.046 L-0.000,4.999 C-0.000,2.238 2.239,-0.001 5.000,-0.001 L26.000,-0.001 C28.761,-0.001 31.000,2.238 31.000,4.999 L31.000,21.046 L31.000,23.999 L31.000,34.952 C31.000,43.814 24.060,50.998 15.500,50.998 ZM29.000,23.255 L29.000,21.046 L29.000,20.999 L29.000,14.999 L29.000,6.999 C29.000,4.237 26.761,1.999 24.000,1.999 L7.000,1.999 C4.238,1.999 2.000,4.237 2.000,6.999 L2.000,11.999 L2.000,21.046 L2.000,23.255 L2.000,34.743 C2.000,42.064 8.596,48.999 15.500,48.999 C22.403,48.999 29.000,42.064 29.000,34.743 L29.000,23.255 Z" class="cls-1"/>
</svg>
