<svg xmlns="http://www.w3.org/2000/svg" xmlns:xlink="http://www.w3.org/1999/xlink" preserveAspectRatio="xMidYMid" width="23" height="20" viewBox="0 0 23 20">
  <defs>
    <style>
      .cls-1 {
        fill: #fff;
        fill-rule: evenodd;
      }
    </style>
  </defs>
  <path d="M21.000,12.000 L2.000,12.000 C0.895,12.000 -0.000,11.104 -0.000,10.000 C-0.000,8.895 0.895,7.999 2.000,7.999 L21.000,7.999 C22.105,7.999 23.000,8.895 23.000,10.000 C23.000,11.104 22.105,12.000 21.000,12.000 ZM21.000,4.000 L2.000,4.000 C0.895,4.000 -0.000,3.104 -0.000,2.000 C-0.000,0.895 0.895,-0.001 2.000,-0.001 L21.000,-0.001 C22.105,-0.001 23.000,0.895 23.000,2.000 C23.000,3.104 22.105,4.000 21.000,4.000 ZM2.000,16.000 L21.000,16.000 C22.105,16.000 23.000,16.895 23.000,18.000 C23.000,19.104 22.105,20.000 21.000,20.000 L2.000,20.000 C0.895,20.000 -0.000,19.104 -0.000,18.000 C-0.000,16.895 0.895,16.000 2.000,16.000 Z" class="cls-1"/>
</svg>
