<svg xmlns="http://www.w3.org/2000/svg" xmlns:xlink="http://www.w3.org/1999/xlink" preserveAspectRatio="xMidYMid" width="23" height="23" viewBox="0 0 23 23">
  <defs>
    <style>
      .cls-1 {
        fill: #fff;
        fill-rule: evenodd;
      }
    </style>
  </defs>
  <path d="M1.504,0.856 C2.425,-0.065 5.206,-0.219 5.227,0.269 C5.248,0.755 7.733,6.157 7.754,6.643 C7.775,7.131 6.116,8.790 5.631,9.276 C5.149,9.758 8.877,13.972 8.947,14.052 C9.027,14.122 13.239,17.851 13.720,17.370 C14.206,16.884 15.865,15.224 16.352,15.245 C16.838,15.267 22.236,17.753 22.723,17.774 C23.209,17.796 23.056,20.578 22.136,21.498 C21.349,22.286 17.274,25.143 10.188,20.040 C9.411,19.593 8.180,18.567 6.314,16.701 C6.313,16.700 6.312,16.699 6.311,16.698 C6.309,16.696 6.308,16.695 6.307,16.694 C6.305,16.692 6.304,16.691 6.302,16.690 C6.301,16.688 6.300,16.688 6.299,16.686 C4.434,14.820 3.409,13.588 2.962,12.810 C-2.139,5.721 0.718,1.643 1.504,0.856 Z" class="cls-1"/>
</svg>
