<svg xmlns="http://www.w3.org/2000/svg" xmlns:xlink="http://www.w3.org/1999/xlink" preserveAspectRatio="xMidYMid" width="22" height="23" viewBox="0 0 22 23">
  <defs>
    <style>
      .cls-1 {
        fill: #fff;
        fill-rule: evenodd;
      }
    </style>
  </defs>
  <path d="M17.959,8.085 C16.873,8.085 15.892,7.651 15.166,6.954 L8.066,10.987 C8.068,11.039 8.081,11.087 8.081,11.140 C8.081,11.405 8.052,11.663 8.003,11.915 L15.110,16.090 C15.841,15.363 16.847,14.913 17.959,14.913 C20.191,14.913 22.000,16.723 22.000,18.955 C22.000,21.189 20.191,22.999 17.959,22.999 C15.727,22.999 13.918,21.189 13.918,18.955 C13.918,18.847 13.942,18.745 13.950,18.638 L6.546,14.289 C5.856,14.839 4.992,15.182 4.041,15.182 C1.809,15.182 -0.000,13.372 -0.000,11.140 C-0.000,8.906 1.809,7.097 4.041,7.097 C5.210,7.097 6.254,7.601 6.992,8.394 L13.958,4.438 C13.945,4.306 13.918,4.178 13.918,4.042 C13.918,1.809 15.727,-0.001 17.959,-0.001 C20.191,-0.001 22.000,1.809 22.000,4.042 C22.000,6.274 20.191,8.085 17.959,8.085 Z" class="cls-1"/>
</svg>
