<svg xmlns="http://www.w3.org/2000/svg" xmlns:xlink="http://www.w3.org/1999/xlink" preserveAspectRatio="xMidYMid" width="25" height="25" viewBox="0 0 25 25">
  <defs>
    <style>
      .cls-1 {
        fill: #fff;
        fill-rule: evenodd;
      }
    </style>
  </defs>
  <path d="M17.317,16.876 C16.885,17.465 16.246,17.932 15.419,18.263 C14.601,18.589 13.619,18.756 12.502,18.756 C11.161,18.756 10.036,18.530 9.159,18.081 C8.531,17.756 8.014,17.314 7.621,16.767 C7.225,16.218 7.024,15.671 7.024,15.143 C7.024,14.814 7.155,14.529 7.413,14.295 C7.669,14.064 7.997,13.946 8.388,13.946 C8.709,13.946 8.986,14.038 9.210,14.221 C9.425,14.396 9.610,14.656 9.758,14.991 C9.924,15.357 10.103,15.665 10.294,15.906 C10.477,16.140 10.741,16.336 11.077,16.490 C11.415,16.644 11.872,16.723 12.433,16.723 C13.205,16.723 13.838,16.564 14.314,16.251 C14.779,15.945 15.005,15.578 15.005,15.129 C15.005,14.774 14.886,14.496 14.644,14.276 C14.390,14.047 14.055,13.870 13.648,13.747 C13.224,13.620 12.647,13.482 11.935,13.338 C10.966,13.139 10.143,12.902 9.488,12.634 C8.818,12.359 8.279,11.979 7.884,11.504 C7.483,11.020 7.280,10.415 7.280,9.701 C7.280,9.023 7.493,8.410 7.914,7.883 C8.331,7.359 8.941,6.950 9.726,6.672 C10.501,6.396 11.423,6.256 12.466,6.256 C13.300,6.256 14.032,6.349 14.644,6.532 C15.260,6.715 15.779,6.965 16.187,7.272 C16.597,7.581 16.903,7.910 17.095,8.255 C17.287,8.600 17.386,8.946 17.386,9.279 C17.386,9.601 17.257,9.893 17.003,10.148 C16.748,10.403 16.425,10.533 16.045,10.533 C15.699,10.533 15.428,10.451 15.240,10.292 C15.065,10.143 14.884,9.911 14.683,9.577 C14.450,9.152 14.168,8.816 13.845,8.579 C13.531,8.349 13.007,8.233 12.286,8.233 C11.617,8.233 11.073,8.362 10.669,8.617 C10.279,8.863 10.089,9.145 10.089,9.479 C10.089,9.684 10.151,9.856 10.277,10.002 C10.409,10.159 10.596,10.295 10.833,10.409 C11.078,10.528 11.331,10.622 11.584,10.690 C11.843,10.759 12.279,10.862 12.876,10.994 C13.632,11.152 14.326,11.325 14.940,11.516 C15.562,11.708 16.099,11.943 16.538,12.218 C16.984,12.498 17.339,12.857 17.590,13.288 C17.842,13.719 17.970,14.252 17.970,14.871 C17.970,15.611 17.749,16.287 17.317,16.876 ZM25.000,18.748 C25.000,22.200 22.202,24.999 18.750,24.999 C17.071,24.999 15.550,24.333 14.427,23.256 C13.801,23.368 13.159,23.436 12.500,23.436 C6.459,23.436 1.562,18.539 1.562,12.499 C1.562,11.840 1.631,11.198 1.742,10.571 C0.665,9.448 -0.000,7.928 -0.000,6.249 C-0.000,2.798 2.798,-0.001 6.250,-0.001 C7.929,-0.001 9.449,0.665 10.572,1.742 C11.199,1.630 11.841,1.561 12.500,1.561 C18.540,1.561 23.437,6.458 23.437,12.499 C23.437,13.157 23.369,13.799 23.257,14.426 C24.335,15.549 25.000,17.070 25.000,18.748 Z" class="cls-1"/>
</svg>
