<svg xmlns="http://www.w3.org/2000/svg" xmlns:xlink="http://www.w3.org/1999/xlink" preserveAspectRatio="xMidYMid" width="13.78" height="11.594" viewBox="0 0 13.78 11.594">
  <defs>
    <style>
      .cls-1 {
        fill: #fff;
        fill-rule: evenodd;
      }
    </style>
  </defs>
  <path d="M12.927,2.051 L12.929,2.051 M9.212,0.004 C7.520,0.004 6.117,1.277 5.902,2.923 C4.517,2.637 3.258,1.881 2.353,0.773 C2.188,0.572 1.946,0.457 1.693,0.457 C1.671,0.457 1.648,0.458 1.625,0.460 C1.348,0.483 1.098,0.641 0.955,0.887 C0.654,1.400 0.496,1.989 0.496,2.588 C0.496,2.988 0.565,3.378 0.698,3.742 C0.557,3.903 0.475,4.115 0.475,4.338 L0.475,4.369 C0.475,5.239 0.809,6.046 1.364,6.651 C1.331,6.802 1.339,6.962 1.387,7.114 C1.579,7.714 1.927,8.230 2.378,8.624 C2.075,8.692 1.762,8.727 1.443,8.727 C1.274,8.727 1.110,8.717 0.955,8.698 C0.920,8.694 0.886,8.692 0.852,8.692 C0.490,8.692 0.161,8.927 0.039,9.285 C-0.095,9.678 0.054,10.114 0.397,10.334 C1.670,11.149 3.141,11.580 4.649,11.580 C9.552,11.580 12.501,7.627 12.559,3.766 C12.960,3.424 13.315,3.028 13.616,2.586 C13.725,2.437 13.790,2.252 13.790,2.051 C13.790,1.749 13.643,1.482 13.420,1.321 C13.517,0.981 13.406,0.611 13.137,0.384 C12.979,0.253 12.786,0.186 12.592,0.186 C12.444,0.186 12.296,0.224 12.162,0.304 C11.877,0.474 11.572,0.607 11.251,0.703 C10.671,0.255 9.951,0.004 9.212,0.004 L9.212,0.004 Z" class="cls-1"/>
</svg>
